<svg width="22" height="9" viewBox="0 0 22 9" fill="none" xmlns="http://www.w3.org/2000/svg">
<path d="M13.3317 7.87568C13.3317 7.65179 13.4619 7.42779 13.7222 7.25717L18.1144 4.37568L13.7233 1.49365C13.2025 1.15186 13.2025 0.598145 13.7233 0.256348C14.2441 -0.0854492 15.0877 -0.0854492 15.6085 0.256348L20.9411 3.75635C21.4619 4.09814 21.4619 4.65186 20.9411 4.99365L15.6085 8.49365C15.0877 8.83545 14.2441 8.83545 13.7233 8.49365C13.4608 8.32412 13.3317 8.0999 13.3317 7.87568Z" fill="#00E5FF"/>
<path opacity="0.4" d="M16.7813 5.25049H1.33317C0.596177 5.25049 0 4.85947 0 4.35088C0 3.84229 0.596177 3.50049 1.33317 3.50049H16.7813L18.1144 4.37549L16.7813 5.25049Z" fill="#00E5FF"/>
</svg>
