<svg width="64" height="64" viewBox="0 0 64 64" fill="none" xmlns="http://www.w3.org/2000/svg">
<circle cx="32" cy="32" r="32" fill="#ECECFE"/>
<g clip-path="url(#clip0_722_529)">
<path d="M39.65 28.0062C39.65 28.2621 39.5523 28.518 39.357 28.7131L30.7125 37.4124C30.5171 37.6077 30.2612 37.7053 30.0056 37.7053C29.75 37.7053 29.4937 37.6062 29.3 37.4124L24.65 32.7687C24.4562 32.5749 24.3562 32.3187 24.3562 32.0062C24.3562 31.7502 24.4538 31.4944 24.6492 31.2993L25.3561 30.5924C25.5562 30.4499 25.7562 30.3562 26.0625 30.3562C26.3687 30.3562 26.575 30.4499 26.775 30.6437L30.0075 33.8762L37.2387 26.6449C37.434 26.4497 37.69 26.3521 37.9456 26.3521C38.2012 26.3521 38.4574 26.4497 38.6525 26.6449L39.3593 27.3518C39.5562 27.5499 39.65 27.8062 39.65 28.0062Z" fill="#651FFF"/>
<path opacity="0.4" d="M45.1562 21.2319L33.1562 16.2319C32.8516 16.105 32.3337 16.0005 32.0037 16.0005C31.6718 16.0005 31.1569 16.105 30.85 16.2319L18.8506 21.2319C17.7313 21.6938 17 22.7876 17 23.9438C17 40.0751 28.825 48.0001 31.9937 48.0001C35.1938 48.0001 47 39.9876 47 23.9438C47 22.7876 46.2687 21.6938 45.1562 21.2319ZM39.65 28.0063C39.65 28.2622 39.5524 28.5181 39.357 28.7132L30.7125 37.4126C30.5172 37.6078 30.2612 37.7054 30.0056 37.7054C29.75 37.7054 29.4938 37.6063 29.3 37.4126L24.65 32.7688C24.4562 32.5751 24.3562 32.3188 24.3562 32.0063C24.3562 31.7504 24.4539 31.4945 24.6493 31.2994L25.3561 30.5926C25.5562 30.4501 25.7563 30.3563 26.0625 30.3563C26.3687 30.3563 26.575 30.4501 26.775 30.6438L30.0075 33.8763L37.2388 26.6451C37.4341 26.4498 37.69 26.3522 37.9456 26.3522C38.2013 26.3522 38.4574 26.4498 38.6525 26.6451L39.3594 27.3519C39.5562 27.5501 39.65 27.8063 39.65 28.0063Z" fill="#651FFF"/>
</g>
<defs>
<clipPath id="clip0_722_529">
<rect width="32" height="32" fill="white" transform="translate(16 16)"/>
</clipPath>
</defs>
</svg>
