<svg width="21" height="9" viewBox="0 0 21 9" fill="none" xmlns="http://www.w3.org/2000/svg">
<path d="M13.0076 7.87568C13.0076 7.65179 13.1346 7.42779 13.3886 7.25717L17.674 4.37568L13.3897 1.49365C12.8816 1.15186 12.8816 0.598145 13.3897 0.256348C13.8978 -0.0854492 14.7209 -0.0854492 15.229 0.256348L20.432 3.75635C20.9401 4.09814 20.9401 4.65186 20.432 4.99365L15.229 8.49365C14.7209 8.83545 13.8978 8.83545 13.3897 8.49365C13.1336 8.32412 13.0076 8.0999 13.0076 7.87568Z" fill="#34D399"/>
<path opacity="0.4" d="M16.3732 5.25049H1.30075C0.581681 5.25049 0 4.85947 0 4.35088C0 3.84229 0.581681 3.50049 1.30075 3.50049H16.3732L17.674 4.37549L16.3732 5.25049Z" fill="#34D399"/>
</svg>
