<svg width="14" height="9" viewBox="0 0 14 9" fill="none" xmlns="http://www.w3.org/2000/svg">
<path d="M8.75 7.87568C8.75 7.65179 8.83545 7.42779 9.00635 7.25717L11.8891 4.37568L9.00703 1.49365C8.66523 1.15186 8.66523 0.598145 9.00703 0.256348C9.34883 -0.0854492 9.90254 -0.0854492 10.2443 0.256348L13.7443 3.75635C14.0861 4.09814 14.0861 4.65186 13.7443 4.99365L10.2443 8.49365C9.90254 8.83545 9.34883 8.83545 9.00703 8.49365C8.83477 8.32412 8.75 8.0999 8.75 7.87568Z" fill="#651FFF"/>
<path opacity="0.4" d="M11.0141 5.25049H0.875C0.391289 5.25049 0 4.85947 0 4.35088C0 3.84229 0.391289 3.50049 0.875 3.50049H11.0141L11.8891 4.37549L11.0141 5.25049Z" fill="#651FFF"/>
</svg>
